{
    "asset" : {
        "generator" : "Khronos glTF Blender I/O v1.5.17",
        "version" : "2.0"
    },
    "scene" : 0,
    "scenes" : [
        {
            "name" : "Scene",
            "nodes" : [
                0
            ]
        }
    ],
    "nodes" : [
        {
            "mesh" : 0,
            "name" : "Ceiling.low.vents"
        }
    ],
    "animations" : [
        {
            "channels" : [
                {
                    "sampler" : 0,
                    "target" : {
                        "node" : 0,
                        "path" : "translation"
                    }
                }
            ],
            "name" : "Ceiling.low.ventsAction",
            "samplers" : [
                {
                    "input" : 5,
                    "interpolation" : "STEP",
                    "output" : 6
                }
            ]
        }
    ],
    "materials" : [
        {
            "doubleSided" : true,
            "name" : "Air.vent.002",
            "pbrMetallicRoughness" : {
                "baseColorFactor" : [
                    0.8271217942237854,
                    0.8271217942237854,
                    0.8271217942237854,
                    1
                ],
                "metallicFactor" : 0.15639810264110565,
                "roughnessFactor" : 0.800613522529602
            }
        }
    ],
    "meshes" : [
        {
            "name" : "Cube.041",
            "primitives" : [
                {
                    "attributes" : {
                        "POSITION" : 0,
                        "NORMAL" : 1,
                        "TEXCOORD_0" : 2,
                        "TEXCOORD_1" : 3
                    },
                    "indices" : 4,
                    "material" : 0
                }
            ]
        }
    ],
    "accessors" : [
        {
            "bufferView" : 0,
            "componentType" : 5126,
            "count" : 2000,
            "max" : [
                0.24373683333396912,
                0.04651763290166855,
                1.6912187337875366
            ],
            "min" : [
                -0.2436027228832245,
                -0.014934479258954525,
                -1.6913851499557495
            ],
            "type" : "VEC3"
        },
        {
            "bufferView" : 1,
            "componentType" : 5126,
            "count" : 2000,
            "type" : "VEC3"
        },
        {
            "bufferView" : 2,
            "componentType" : 5126,
            "count" : 2000,
            "type" : "VEC2"
        },
        {
            "bufferView" : 3,
            "componentType" : 5126,
            "count" : 2000,
            "type" : "VEC2"
        },
        {
            "bufferView" : 4,
            "componentType" : 5123,
            "count" : 4548,
            "type" : "SCALAR"
        },
        {
            "bufferView" : 5,
            "componentType" : 5126,
            "count" : 1,
            "max" : [
                0
            ],
            "min" : [
                0
            ],
            "type" : "SCALAR"
        },
        {
            "bufferView" : 6,
            "componentType" : 5126,
            "count" : 1,
            "type" : "VEC3"
        }
    ],
    "bufferViews" : [
        {
            "buffer" : 0,
            "byteLength" : 24000,
            "byteOffset" : 0
        },
        {
            "buffer" : 0,
            "byteLength" : 24000,
            "byteOffset" : 24000
        },
        {
            "buffer" : 0,
            "byteLength" : 16000,
            "byteOffset" : 48000
        },
        {
            "buffer" : 0,
            "byteLength" : 16000,
            "byteOffset" : 64000
        },
        {
            "buffer" : 0,
            "byteLength" : 9096,
            "byteOffset" : 80000
        },
        {
            "buffer" : 0,
            "byteLength" : 4,
            "byteOffset" : 89096
        },
        {
            "buffer" : 0,
            "byteLength" : 12,
            "byteOffset" : 89100
        }
    ],
    "buffers" : [
        {
            "byteLength" : 89112,
            "uri" : "data:application/octet-stream;base64,"
        }
    ]
}
