{
    "asset" : {
        "generator" : "Khronos glTF Blender I/O v1.5.17",
        "version" : "2.0"
    },
    "scene" : 0,
    "scenes" : [
        {
            "name" : "Scene",
            "nodes" : [
                0
            ]
        }
    ],
    "nodes" : [
        {
            "mesh" : 0,
            "name" : "Ceiling.high"
        }
    ],
    "animations" : [
        {
            "channels" : [
                {
                    "sampler" : 0,
                    "target" : {
                        "node" : 0,
                        "path" : "translation"
                    }
                },
                {
                    "sampler" : 1,
                    "target" : {
                        "node" : 0,
                        "path" : "rotation"
                    }
                },
                {
                    "sampler" : 2,
                    "target" : {
                        "node" : 0,
                        "path" : "scale"
                    }
                }
            ],
            "name" : "Ceiling.highAction",
            "samplers" : [
                {
                    "input" : 6,
                    "interpolation" : "STEP",
                    "output" : 7
                },
                {
                    "input" : 6,
                    "interpolation" : "STEP",
                    "output" : 8
                },
                {
                    "input" : 6,
                    "interpolation" : "STEP",
                    "output" : 9
                }
            ]
        }
    ],
    "materials" : [
        {
            "doubleSided" : true,
            "name" : "Drop.Ceiling.002",
            "pbrMetallicRoughness" : {
                "baseColorFactor" : [
                    0.7874124050140381,
                    0.7874124050140381,
                    0.7874124050140381,
                    1
                ],
                "metallicFactor" : 0,
                "roughnessFactor" : 0.7576687335968018
            }
        }
    ],
    "meshes" : [
        {
            "name" : "Cube.011",
            "primitives" : [
                {
                    "attributes" : {
                        "POSITION" : 0,
                        "NORMAL" : 1,
                        "TEXCOORD_0" : 2,
                        "TEXCOORD_1" : 3,
                        "COLOR_0" : 4
                    },
                    "indices" : 5,
                    "material" : 0
                }
            ]
        }
    ],
    "accessors" : [
        {
            "bufferView" : 0,
            "componentType" : 5126,
            "count" : 8039,
            "max" : [
                2.5671637058258057,
                0.11146636307239532,
                2.564059019088745
            ],
            "min" : [
                -2.5671634674072266,
                -0.07221267372369766,
                -2.580209732055664
            ],
            "type" : "VEC3"
        },
        {
            "bufferView" : 1,
            "componentType" : 5126,
            "count" : 8039,
            "type" : "VEC3"
        },
        {
            "bufferView" : 2,
            "componentType" : 5126,
            "count" : 8039,
            "type" : "VEC2"
        },
        {
            "bufferView" : 3,
            "componentType" : 5126,
            "count" : 8039,
            "type" : "VEC2"
        },
        {
            "bufferView" : 4,
            "componentType" : 5123,
            "count" : 8039,
            "normalized" : true,
            "type" : "VEC4"
        },
        {
            "bufferView" : 5,
            "componentType" : 5123,
            "count" : 16848,
            "type" : "SCALAR"
        },
        {
            "bufferView" : 6,
            "componentType" : 5126,
            "count" : 1,
            "max" : [
                0
            ],
            "min" : [
                0
            ],
            "type" : "SCALAR"
        },
        {
            "bufferView" : 7,
            "componentType" : 5126,
            "count" : 1,
            "type" : "VEC3"
        },
        {
            "bufferView" : 8,
            "componentType" : 5126,
            "count" : 1,
            "type" : "VEC4"
        },
        {
            "bufferView" : 9,
            "componentType" : 5126,
            "count" : 1,
            "type" : "VEC3"
        }
    ],
    "bufferViews" : [
        {
            "buffer" : 0,
            "byteLength" : 96468,
            "byteOffset" : 0
        },
        {
            "buffer" : 0,
            "byteLength" : 96468,
            "byteOffset" : 96468
        },
        {
            "buffer" : 0,
            "byteLength" : 64312,
            "byteOffset" : 192936
        },
        {
            "buffer" : 0,
            "byteLength" : 64312,
            "byteOffset" : 257248
        },
        {
            "buffer" : 0,
            "byteLength" : 64312,
            "byteOffset" : 321560
        },
        {
            "buffer" : 0,
            "byteLength" : 33696,
            "byteOffset" : 385872
        },
        {
            "buffer" : 0,
            "byteLength" : 4,
            "byteOffset" : 419568
        },
        {
            "buffer" : 0,
            "byteLength" : 12,
            "byteOffset" : 419572
        },
        {
            "buffer" : 0,
            "byteLength" : 16,
            "byteOffset" : 419584
        },
        {
            "buffer" : 0,
            "byteLength" : 12,
            "byteOffset" : 419600
        }
    ],
    "buffers" : [
        {
            "byteLength" : 419612,
            "uri" : "data:application/octet-stream;base64,"
        }
    ]
}
