{
    "asset" : {
        "generator" : "Khronos glTF Blender I/O v1.5.17",
        "version" : "2.0"
    },
    "scene" : 0,
    "scenes" : [
        {
            "name" : "Scene",
            "nodes" : [
                0
            ]
        }
    ],
    "nodes" : [
        {
            "mesh" : 0,
            "name" : "Ceiling.high.vents"
        }
    ],
    "animations" : [
        {
            "channels" : [
                {
                    "sampler" : 0,
                    "target" : {
                        "node" : 0,
                        "path" : "translation"
                    }
                }
            ],
            "name" : "Ceiling.high.ventsAction",
            "samplers" : [
                {
                    "input" : 5,
                    "interpolation" : "STEP",
                    "output" : 6
                }
            ]
        }
    ],
    "materials" : [
        {
            "doubleSided" : true,
            "name" : "Air.vent.001",
            "pbrMetallicRoughness" : {
                "baseColorFactor" : [
                    0.5121603012084961,
                    0.5121603012084961,
                    0.5121603012084961,
                    1
                ],
                "metallicFactor" : 0.15639810264110565,
                "roughnessFactor" : 0.8163203001022339
            }
        }
    ],
    "meshes" : [
        {
            "name" : "Cube.061",
            "primitives" : [
                {
                    "attributes" : {
                        "POSITION" : 0,
                        "NORMAL" : 1,
                        "TEXCOORD_0" : 2,
                        "TEXCOORD_1" : 3
                    },
                    "indices" : 4,
                    "material" : 0
                }
            ]
        }
    ],
    "accessors" : [
        {
            "bufferView" : 0,
            "componentType" : 5126,
            "count" : 5260,
            "max" : [
                2.2462689876556396,
                0.058490656316280365,
                1.9214415550231934
            ],
            "min" : [
                -2.239384412765503,
                -0.03237830847501755,
                -1.9272935390472412
            ],
            "type" : "VEC3"
        },
        {
            "bufferView" : 1,
            "componentType" : 5126,
            "count" : 5260,
            "type" : "VEC3"
        },
        {
            "bufferView" : 2,
            "componentType" : 5126,
            "count" : 5260,
            "type" : "VEC2"
        },
        {
            "bufferView" : 3,
            "componentType" : 5126,
            "count" : 5260,
            "type" : "VEC2"
        },
        {
            "bufferView" : 4,
            "componentType" : 5123,
            "count" : 10200,
            "type" : "SCALAR"
        },
        {
            "bufferView" : 5,
            "componentType" : 5126,
            "count" : 1,
            "max" : [
                0
            ],
            "min" : [
                0
            ],
            "type" : "SCALAR"
        },
        {
            "bufferView" : 6,
            "componentType" : 5126,
            "count" : 1,
            "type" : "VEC3"
        }
    ],
    "bufferViews" : [
        {
            "buffer" : 0,
            "byteLength" : 63120,
            "byteOffset" : 0
        },
        {
            "buffer" : 0,
            "byteLength" : 63120,
            "byteOffset" : 63120
        },
        {
            "buffer" : 0,
            "byteLength" : 42080,
            "byteOffset" : 126240
        },
        {
            "buffer" : 0,
            "byteLength" : 42080,
            "byteOffset" : 168320
        },
        {
            "buffer" : 0,
            "byteLength" : 20400,
            "byteOffset" : 210400
        },
        {
            "buffer" : 0,
            "byteLength" : 4,
            "byteOffset" : 230800
        },
        {
            "buffer" : 0,
            "byteLength" : 12,
            "byteOffset" : 230804
        }
    ],
    "buffers" : [
        {
            "byteLength" : 230816,
            "uri" : "data:application/octet-stream;base64,"
        }
    ]
}
