{
    "asset" : {
        "generator" : "Khronos glTF Blender I/O v1.5.17",
        "version" : "2.0"
    },
    "scene" : 0,
    "scenes" : [
        {
            "name" : "Scene",
            "nodes" : [
                0
            ]
        }
    ],
    "nodes" : [
        {
            "mesh" : 0,
            "name" : "Door.back.right"
        }
    ],
    "animations" : [
        {
            "channels" : [
                {
                    "sampler" : 0,
                    "target" : {
                        "node" : 0,
                        "path" : "translation"
                    }
                }
            ],
            "name" : "Door.back.rightAction",
            "samplers" : [
                {
                    "input" : 6,
                    "interpolation" : "STEP",
                    "output" : 7
                }
            ]
        }
    ],
    "materials" : [
        {
            "doubleSided" : true,
            "name" : "Sliding.door.right.001",
            "pbrMetallicRoughness" : {
                "baseColorFactor" : [
                    0.7324752807617188,
                    0.7324752807617188,
                    0.7324752807617188,
                    1
                ],
                "metallicFactor" : 0.11650484800338745,
                "roughnessFactor" : 0.8495146036148071
            }
        }
    ],
    "meshes" : [
        {
            "name" : "Cube.022",
            "primitives" : [
                {
                    "attributes" : {
                        "POSITION" : 0,
                        "NORMAL" : 1,
                        "TEXCOORD_0" : 2,
                        "TEXCOORD_1" : 3,
                        "COLOR_0" : 4
                    },
                    "indices" : 5,
                    "material" : 0
                }
            ]
        }
    ],
    "accessors" : [
        {
            "bufferView" : 0,
            "componentType" : 5126,
            "count" : 2356,
            "max" : [
                0.07656591385602951,
                1.3465272188186646,
                0.6031901836395264
            ],
            "min" : [
                -0.08757555484771729,
                -1.2195676565170288,
                -0.7220745086669922
            ],
            "type" : "VEC3"
        },
        {
            "bufferView" : 1,
            "componentType" : 5126,
            "count" : 2356,
            "type" : "VEC3"
        },
        {
            "bufferView" : 2,
            "componentType" : 5126,
            "count" : 2356,
            "type" : "VEC2"
        },
        {
            "bufferView" : 3,
            "componentType" : 5126,
            "count" : 2356,
            "type" : "VEC2"
        },
        {
            "bufferView" : 4,
            "componentType" : 5123,
            "count" : 2356,
            "normalized" : true,
            "type" : "VEC4"
        },
        {
            "bufferView" : 5,
            "componentType" : 5123,
            "count" : 4620,
            "type" : "SCALAR"
        },
        {
            "bufferView" : 6,
            "componentType" : 5126,
            "count" : 1,
            "max" : [
                0
            ],
            "min" : [
                0
            ],
            "type" : "SCALAR"
        },
        {
            "bufferView" : 7,
            "componentType" : 5126,
            "count" : 1,
            "type" : "VEC3"
        }
    ],
    "bufferViews" : [
        {
            "buffer" : 0,
            "byteLength" : 28272,
            "byteOffset" : 0
        },
        {
            "buffer" : 0,
            "byteLength" : 28272,
            "byteOffset" : 28272
        },
        {
            "buffer" : 0,
            "byteLength" : 18848,
            "byteOffset" : 56544
        },
        {
            "buffer" : 0,
            "byteLength" : 18848,
            "byteOffset" : 75392
        },
        {
            "buffer" : 0,
            "byteLength" : 18848,
            "byteOffset" : 94240
        },
        {
            "buffer" : 0,
            "byteLength" : 9240,
            "byteOffset" : 113088
        },
        {
            "buffer" : 0,
            "byteLength" : 4,
            "byteOffset" : 122328
        },
        {
            "buffer" : 0,
            "byteLength" : 12,
            "byteOffset" : 122332
        }
    ],
    "buffers" : [
        {
            "byteLength" : 122344,
            "uri" : "data:application/octet-stream;base64,"
        }
    ]
}
