{
    "asset" : {
        "generator" : "Khronos glTF Blender I/O v1.5.17",
        "version" : "2.0"
    },
    "scene" : 0,
    "scenes" : [
        {
            "name" : "Scene",
            "nodes" : [
                0
            ]
        }
    ],
    "nodes" : [
        {
            "mesh" : 0,
            "name" : "Door.Main.handle"
        }
    ],
    "animations" : [
        {
            "channels" : [
                {
                    "sampler" : 0,
                    "target" : {
                        "node" : 0,
                        "path" : "translation"
                    }
                }
            ],
            "name" : "Door.Main.handleAction",
            "samplers" : [
                {
                    "input" : 6,
                    "interpolation" : "STEP",
                    "output" : 7
                }
            ]
        }
    ],
    "materials" : [
        {
            "doubleSided" : true,
            "name" : "Main.door.handle.001",
            "pbrMetallicRoughness" : {
                "baseColorFactor" : [
                    0.682780385017395,
                    0.682780385017395,
                    0.682780385017395,
                    1
                ],
                "metallicFactor" : 0.8900523781776428,
                "roughnessFactor" : 0.37958115339279175
            }
        }
    ],
    "meshes" : [
        {
            "name" : "Cube.001",
            "primitives" : [
                {
                    "attributes" : {
                        "POSITION" : 0,
                        "NORMAL" : 1,
                        "TEXCOORD_0" : 2,
                        "TEXCOORD_1" : 3,
                        "COLOR_0" : 4
                    },
                    "indices" : 5,
                    "material" : 0
                }
            ]
        }
    ],
    "accessors" : [
        {
            "bufferView" : 0,
            "componentType" : 5126,
            "count" : 2100,
            "max" : [
                0.06964164972305298,
                0.08868403732776642,
                0.08983247727155685
            ],
            "min" : [
                -0.1362810879945755,
                -0.08867080509662628,
                -0.0902487114071846
            ],
            "type" : "VEC3"
        },
        {
            "bufferView" : 1,
            "componentType" : 5126,
            "count" : 2100,
            "type" : "VEC3"
        },
        {
            "bufferView" : 2,
            "componentType" : 5126,
            "count" : 2100,
            "type" : "VEC2"
        },
        {
            "bufferView" : 3,
            "componentType" : 5126,
            "count" : 2100,
            "type" : "VEC2"
        },
        {
            "bufferView" : 4,
            "componentType" : 5123,
            "count" : 2100,
            "normalized" : true,
            "type" : "VEC4"
        },
        {
            "bufferView" : 5,
            "componentType" : 5123,
            "count" : 4332,
            "type" : "SCALAR"
        },
        {
            "bufferView" : 6,
            "componentType" : 5126,
            "count" : 1,
            "max" : [
                0
            ],
            "min" : [
                0
            ],
            "type" : "SCALAR"
        },
        {
            "bufferView" : 7,
            "componentType" : 5126,
            "count" : 1,
            "type" : "VEC3"
        }
    ],
    "bufferViews" : [
        {
            "buffer" : 0,
            "byteLength" : 25200,
            "byteOffset" : 0
        },
        {
            "buffer" : 0,
            "byteLength" : 25200,
            "byteOffset" : 25200
        },
        {
            "buffer" : 0,
            "byteLength" : 16800,
            "byteOffset" : 50400
        },
        {
            "buffer" : 0,
            "byteLength" : 16800,
            "byteOffset" : 67200
        },
        {
            "buffer" : 0,
            "byteLength" : 16800,
            "byteOffset" : 84000
        },
        {
            "buffer" : 0,
            "byteLength" : 8664,
            "byteOffset" : 100800
        },
        {
            "buffer" : 0,
            "byteLength" : 4,
            "byteOffset" : 109464
        },
        {
            "buffer" : 0,
            "byteLength" : 12,
            "byteOffset" : 109468
        }
    ],
    "buffers" : [
        {
            "byteLength" : 109480,
            "uri" : "data:application/octet-stream;base64,"
        }
    ]
}
