{
    "asset" : {
        "generator" : "Khronos glTF Blender I/O v1.5.17",
        "version" : "2.0"
    },
    "scene" : 0,
    "scenes" : [
        {
            "name" : "Scene",
            "nodes" : [
                0
            ]
        }
    ],
    "nodes" : [
        {
            "mesh" : 0,
            "name" : "Door.back.left.frame"
        }
    ],
    "animations" : [
        {
            "channels" : [
                {
                    "sampler" : 0,
                    "target" : {
                        "node" : 0,
                        "path" : "translation"
                    }
                }
            ],
            "name" : "Door.back.left.frameAction",
            "samplers" : [
                {
                    "input" : 5,
                    "interpolation" : "STEP",
                    "output" : 6
                }
            ]
        }
    ],
    "materials" : [
        {
            "doubleSided" : true,
            "name" : "Window.Frames",
            "pbrMetallicRoughness" : {
                "baseColorFactor" : [
                    0.003607005812227726,
                    0.003607005812227726,
                    0.003607005812227726,
                    1
                ],
                "metallicFactor" : 0.9018404483795166,
                "roughnessFactor" : 0.3558282256126404
            }
        }
    ],
    "meshes" : [
        {
            "name" : "Cube.019",
            "primitives" : [
                {
                    "attributes" : {
                        "POSITION" : 0,
                        "NORMAL" : 1,
                        "TEXCOORD_0" : 2,
                        "TEXCOORD_1" : 3
                    },
                    "indices" : 4,
                    "material" : 0
                }
            ]
        }
    ],
    "accessors" : [
        {
            "bufferView" : 0,
            "componentType" : 5126,
            "count" : 104,
            "max" : [
                0.07719685137271881,
                1.650602102279663,
                3.0228168964385986
            ],
            "min" : [
                -0.12326240539550781,
                -1.42483389377594,
                -4.148311138153076
            ],
            "type" : "VEC3"
        },
        {
            "bufferView" : 1,
            "componentType" : 5126,
            "count" : 104,
            "type" : "VEC3"
        },
        {
            "bufferView" : 2,
            "componentType" : 5126,
            "count" : 104,
            "type" : "VEC2"
        },
        {
            "bufferView" : 3,
            "componentType" : 5126,
            "count" : 104,
            "type" : "VEC2"
        },
        {
            "bufferView" : 4,
            "componentType" : 5123,
            "count" : 156,
            "type" : "SCALAR"
        },
        {
            "bufferView" : 5,
            "componentType" : 5126,
            "count" : 1,
            "max" : [
                0
            ],
            "min" : [
                0
            ],
            "type" : "SCALAR"
        },
        {
            "bufferView" : 6,
            "componentType" : 5126,
            "count" : 1,
            "type" : "VEC3"
        }
    ],
    "bufferViews" : [
        {
            "buffer" : 0,
            "byteLength" : 1248,
            "byteOffset" : 0
        },
        {
            "buffer" : 0,
            "byteLength" : 1248,
            "byteOffset" : 1248
        },
        {
            "buffer" : 0,
            "byteLength" : 832,
            "byteOffset" : 2496
        },
        {
            "buffer" : 0,
            "byteLength" : 832,
            "byteOffset" : 3328
        },
        {
            "buffer" : 0,
            "byteLength" : 312,
            "byteOffset" : 4160
        },
        {
            "buffer" : 0,
            "byteLength" : 4,
            "byteOffset" : 4472
        },
        {
            "buffer" : 0,
            "byteLength" : 12,
            "byteOffset" : 4476
        }
    ],
    "buffers" : [
        {
            "byteLength" : 4488,
            "uri" : "data:application/octet-stream;base64,"
        }
    ]
}
