{
    "asset" : {
        "generator" : "Khronos glTF Blender I/O v1.5.17",
        "version" : "2.0"
    },
    "scene" : 0,
    "scenes" : [
        {
            "name" : "Scene",
            "nodes" : [
                0
            ]
        }
    ],
    "nodes" : [
        {
            "mesh" : 0,
            "name" : "Droplet.Circle.001",
            "rotation" : [
                0,
                0,
                0,
                -1
            ],
            "scale" : [
                1.0226995944976807,
                1.0226995944976807,
                1.0226995944976807
            ]
        }
    ],
    "animations" : [
        {
            "channels" : [
                {
                    "sampler" : 0,
                    "target" : {
                        "node" : 0,
                        "path" : "translation"
                    }
                },
                {
                    "sampler" : 1,
                    "target" : {
                        "node" : 0,
                        "path" : "rotation"
                    }
                },
                {
                    "sampler" : 2,
                    "target" : {
                        "node" : 0,
                        "path" : "scale"
                    }
                }
            ],
            "name" : "Droplet_Circle.001Action",
            "samplers" : [
                {
                    "input" : 5,
                    "interpolation" : "STEP",
                    "output" : 6
                },
                {
                    "input" : 5,
                    "interpolation" : "STEP",
                    "output" : 7
                },
                {
                    "input" : 5,
                    "interpolation" : "STEP",
                    "output" : 8
                }
            ]
        }
    ],
    "materials" : [
        {
            "doubleSided" : true,
            "name" : "Material.005",
            "pbrMetallicRoughness" : {
                "baseColorTexture" : {
                    "index" : 0
                },
                "metallicFactor" : 0.39153438806533813,
                "roughnessFactor" : 0.7671957612037659
            }
        }
    ],
    "meshes" : [
        {
            "name" : "Droplet_Circle.001",
            "primitives" : [
                {
                    "attributes" : {
                        "POSITION" : 0,
                        "NORMAL" : 1,
                        "TEXCOORD_0" : 2,
                        "TEXCOORD_1" : 3
                    },
                    "indices" : 4,
                    "material" : 0
                }
            ]
        }
    ],
    "textures" : [
        {
            "sampler" : 0,
            "source" : 0
        }
    ],
    "images" : [
        {
            "bufferView" : 5,
            "mimeType" : "image/jpeg",
            "name" : "water3"
        }
    ],
    "accessors" : [
        {
            "bufferView" : 0,
            "componentType" : 5126,
            "count" : 1612,
            "max" : [
                0.6389230489730835,
                1.1316262483596802,
                0.6387923359870911
            ],
            "min" : [
                -0.6389816999435425,
                -0.9258849024772644,
                -0.639112651348114
            ],
            "type" : "VEC3"
        },
        {
            "bufferView" : 1,
            "componentType" : 5126,
            "count" : 1612,
            "type" : "VEC3"
        },
        {
            "bufferView" : 2,
            "componentType" : 5126,
            "count" : 1612,
            "type" : "VEC2"
        },
        {
            "bufferView" : 3,
            "componentType" : 5126,
            "count" : 1612,
            "type" : "VEC2"
        },
        {
            "bufferView" : 4,
            "componentType" : 5123,
            "count" : 8520,
            "type" : "SCALAR"
        },
        {
            "bufferView" : 6,
            "componentType" : 5126,
            "count" : 1,
            "max" : [
                0
            ],
            "min" : [
                0
            ],
            "type" : "SCALAR"
        },
        {
            "bufferView" : 7,
            "componentType" : 5126,
            "count" : 1,
            "type" : "VEC3"
        },
        {
            "bufferView" : 8,
            "componentType" : 5126,
            "count" : 1,
            "type" : "VEC4"
        },
        {
            "bufferView" : 9,
            "componentType" : 5126,
            "count" : 1,
            "type" : "VEC3"
        }
    ],
    "bufferViews" : [
        {
            "buffer" : 0,
            "byteLength" : 19344,
            "byteOffset" : 0
        },
        {
            "buffer" : 0,
            "byteLength" : 19344,
            "byteOffset" : 19344
        },
        {
            "buffer" : 0,
            "byteLength" : 12896,
            "byteOffset" : 38688
        },
        {
            "buffer" : 0,
            "byteLength" : 12896,
            "byteOffset" : 51584
        },
        {
            "buffer" : 0,
            "byteLength" : 17040,
            "byteOffset" : 64480
        },
        {
            "buffer" : 0,
            "byteLength" : 131985,
            "byteOffset" : 81520
        },
        {
            "buffer" : 0,
            "byteLength" : 4,
            "byteOffset" : 213508
        },
        {
            "buffer" : 0,
            "byteLength" : 12,
            "byteOffset" : 213512
        },
        {
            "buffer" : 0,
            "byteLength" : 16,
            "byteOffset" : 213524
        },
        {
            "buffer" : 0,
            "byteLength" : 12,
            "byteOffset" : 213540
        }
    ],
    "samplers" : [
        {
            "magFilter" : 9729,
            "minFilter" : 9987
        }
    ],
    "buffers" : [
        {
            "byteLength" : 213552,
            "uri" : "data:application/octet-stream;base64,"
        }
    ]
}
