{
    "asset" : {
        "generator" : "Khronos glTF Blender I/O v1.5.17",
        "version" : "2.0"
    },
    "scene" : 0,
    "scenes" : [
        {
            "name" : "Scene",
            "nodes" : [
                0
            ]
        }
    ],
    "nodes" : [
        {
            "mesh" : 0,
            "name" : "fan.001",
            "rotation" : [
                -0.029913704842329025,
                0.026485679671168327,
                -0.031018203124403954,
                0.9987200498580933
            ],
            "scale" : [
                0.8303970694541931,
                0.8303970694541931,
                0.8303970098495483
            ]
        }
    ],
    "animations" : [
        {
            "channels" : [
                {
                    "sampler" : 0,
                    "target" : {
                        "node" : 0,
                        "path" : "translation"
                    }
                },
                {
                    "sampler" : 1,
                    "target" : {
                        "node" : 0,
                        "path" : "rotation"
                    }
                },
                {
                    "sampler" : 2,
                    "target" : {
                        "node" : 0,
                        "path" : "scale"
                    }
                }
            ],
            "name" : "fanAction.001",
            "samplers" : [
                {
                    "input" : 12,
                    "interpolation" : "STEP",
                    "output" : 13
                },
                {
                    "input" : 12,
                    "interpolation" : "STEP",
                    "output" : 14
                },
                {
                    "input" : 12,
                    "interpolation" : "STEP",
                    "output" : 15
                }
            ]
        }
    ],
    "materials" : [
        {
            "doubleSided" : true,
            "emissiveFactor" : [
                0.5,
                0.5,
                0.5
            ],
            "name" : "Material.002",
            "pbrMetallicRoughness" : {
                "baseColorFactor" : [
                    0.9922831654548645,
                    0.9820184111595154,
                    1,
                    1
                ],
                "metallicFactor" : 0.8813559412956238,
                "roughnessFactor" : 0.4000000059604645
            }
        },
        {
            "doubleSided" : true,
            "name" : "Material.003",
            "pbrMetallicRoughness" : {
                "baseColorFactor" : [
                    0.0839884877204895,
                    0.0839884877204895,
                    0.0839884877204895,
                    1
                ],
                "metallicFactor" : 0.8999999761581421,
                "roughnessFactor" : 0.5
            }
        }
    ],
    "meshes" : [
        {
            "name" : "Cylinder.006",
            "primitives" : [
                {
                    "attributes" : {
                        "POSITION" : 0,
                        "NORMAL" : 1,
                        "TEXCOORD_0" : 2,
                        "TEXCOORD_1" : 3,
                        "COLOR_0" : 4
                    },
                    "indices" : 5,
                    "material" : 0
                },
                {
                    "attributes" : {
                        "POSITION" : 6,
                        "NORMAL" : 7,
                        "TEXCOORD_0" : 8,
                        "TEXCOORD_1" : 9,
                        "COLOR_0" : 10
                    },
                    "indices" : 11,
                    "material" : 1
                }
            ]
        }
    ],
    "accessors" : [
        {
            "bufferView" : 0,
            "componentType" : 5126,
            "count" : 6780,
            "max" : [
                1.7085860967636108,
                0.261211097240448,
                2.3721981048583984
            ],
            "min" : [
                -1.8300913572311401,
                -0.26576608419418335,
                -2.1459245681762695
            ],
            "type" : "VEC3"
        },
        {
            "bufferView" : 1,
            "componentType" : 5126,
            "count" : 6780,
            "type" : "VEC3"
        },
        {
            "bufferView" : 2,
            "componentType" : 5126,
            "count" : 6780,
            "type" : "VEC2"
        },
        {
            "bufferView" : 3,
            "componentType" : 5126,
            "count" : 6780,
            "type" : "VEC2"
        },
        {
            "bufferView" : 4,
            "componentType" : 5123,
            "count" : 6780,
            "normalized" : true,
            "type" : "VEC4"
        },
        {
            "bufferView" : 5,
            "componentType" : 5123,
            "count" : 8124,
            "type" : "SCALAR"
        },
        {
            "bufferView" : 6,
            "componentType" : 5126,
            "count" : 776,
            "max" : [
                1.7334480285644531,
                0.27741295099258423,
                2.395869731903076
            ],
            "min" : [
                -1.8560899496078491,
                -0.28419601917266846,
                -2.1693382263183594
            ],
            "type" : "VEC3"
        },
        {
            "bufferView" : 7,
            "componentType" : 5126,
            "count" : 776,
            "type" : "VEC3"
        },
        {
            "bufferView" : 8,
            "componentType" : 5126,
            "count" : 776,
            "type" : "VEC2"
        },
        {
            "bufferView" : 9,
            "componentType" : 5126,
            "count" : 776,
            "type" : "VEC2"
        },
        {
            "bufferView" : 10,
            "componentType" : 5123,
            "count" : 776,
            "normalized" : true,
            "type" : "VEC4"
        },
        {
            "bufferView" : 11,
            "componentType" : 5123,
            "count" : 2208,
            "type" : "SCALAR"
        },
        {
            "bufferView" : 12,
            "componentType" : 5126,
            "count" : 1,
            "max" : [
                0
            ],
            "min" : [
                0
            ],
            "type" : "SCALAR"
        },
        {
            "bufferView" : 13,
            "componentType" : 5126,
            "count" : 1,
            "type" : "VEC3"
        },
        {
            "bufferView" : 14,
            "componentType" : 5126,
            "count" : 1,
            "type" : "VEC4"
        },
        {
            "bufferView" : 15,
            "componentType" : 5126,
            "count" : 1,
            "type" : "VEC3"
        }
    ],
    "bufferViews" : [
        {
            "buffer" : 0,
            "byteLength" : 81360,
            "byteOffset" : 0
        },
        {
            "buffer" : 0,
            "byteLength" : 81360,
            "byteOffset" : 81360
        },
        {
            "buffer" : 0,
            "byteLength" : 54240,
            "byteOffset" : 162720
        },
        {
            "buffer" : 0,
            "byteLength" : 54240,
            "byteOffset" : 216960
        },
        {
            "buffer" : 0,
            "byteLength" : 54240,
            "byteOffset" : 271200
        },
        {
            "buffer" : 0,
            "byteLength" : 16248,
            "byteOffset" : 325440
        },
        {
            "buffer" : 0,
            "byteLength" : 9312,
            "byteOffset" : 341688
        },
        {
            "buffer" : 0,
            "byteLength" : 9312,
            "byteOffset" : 351000
        },
        {
            "buffer" : 0,
            "byteLength" : 6208,
            "byteOffset" : 360312
        },
        {
            "buffer" : 0,
            "byteLength" : 6208,
            "byteOffset" : 366520
        },
        {
            "buffer" : 0,
            "byteLength" : 6208,
            "byteOffset" : 372728
        },
        {
            "buffer" : 0,
            "byteLength" : 4416,
            "byteOffset" : 378936
        },
        {
            "buffer" : 0,
            "byteLength" : 4,
            "byteOffset" : 383352
        },
        {
            "buffer" : 0,
            "byteLength" : 12,
            "byteOffset" : 383356
        },
        {
            "buffer" : 0,
            "byteLength" : 16,
            "byteOffset" : 383368
        },
        {
            "buffer" : 0,
            "byteLength" : 12,
            "byteOffset" : 383384
        }
    ],
    "buffers" : [
        {
            "byteLength" : 383396,
            "uri" : "data:application/octet-stream;base64,"
        }
    ]
}
