{
    "asset" : {
        "generator" : "Khronos glTF Blender I/O v1.5.17",
        "version" : "2.0"
    },
    "scene" : 0,
    "scenes" : [
        {
            "name" : "Scene",
            "nodes" : [
                0
            ]
        }
    ],
    "nodes" : [
        {
            "mesh" : 0,
            "name" : "Frame.entrance.door"
        }
    ],
    "animations" : [
        {
            "channels" : [
                {
                    "sampler" : 0,
                    "target" : {
                        "node" : 0,
                        "path" : "translation"
                    }
                }
            ],
            "name" : "Frame.entrance.doorAction",
            "samplers" : [
                {
                    "input" : 6,
                    "interpolation" : "STEP",
                    "output" : 7
                }
            ]
        }
    ],
    "materials" : [
        {
            "doubleSided" : true,
            "name" : "Material.001",
            "pbrMetallicRoughness" : {
                "baseColorFactor" : [
                    0.800000011920929,
                    0.800000011920929,
                    0.800000011920929,
                    1
                ],
                "metallicFactor" : 0,
                "roughnessFactor" : 0.5
            }
        }
    ],
    "meshes" : [
        {
            "name" : "Cube.014",
            "primitives" : [
                {
                    "attributes" : {
                        "POSITION" : 0,
                        "NORMAL" : 1,
                        "TEXCOORD_0" : 2,
                        "TEXCOORD_1" : 3,
                        "COLOR_0" : 4
                    },
                    "indices" : 5,
                    "material" : 0
                }
            ]
        }
    ],
    "accessors" : [
        {
            "bufferView" : 0,
            "componentType" : 5126,
            "count" : 354,
            "max" : [
                0.6642934083938599,
                1.3446818590164185,
                0.08446777611970901
            ],
            "min" : [
                -1.0935962200164795,
                -1.2559051513671875,
                -0.08378993719816208
            ],
            "type" : "VEC3"
        },
        {
            "bufferView" : 1,
            "componentType" : 5126,
            "count" : 354,
            "type" : "VEC3"
        },
        {
            "bufferView" : 2,
            "componentType" : 5126,
            "count" : 354,
            "type" : "VEC2"
        },
        {
            "bufferView" : 3,
            "componentType" : 5126,
            "count" : 354,
            "type" : "VEC2"
        },
        {
            "bufferView" : 4,
            "componentType" : 5123,
            "count" : 354,
            "normalized" : true,
            "type" : "VEC4"
        },
        {
            "bufferView" : 5,
            "componentType" : 5123,
            "count" : 666,
            "type" : "SCALAR"
        },
        {
            "bufferView" : 6,
            "componentType" : 5126,
            "count" : 1,
            "max" : [
                0
            ],
            "min" : [
                0
            ],
            "type" : "SCALAR"
        },
        {
            "bufferView" : 7,
            "componentType" : 5126,
            "count" : 1,
            "type" : "VEC3"
        }
    ],
    "bufferViews" : [
        {
            "buffer" : 0,
            "byteLength" : 4248,
            "byteOffset" : 0
        },
        {
            "buffer" : 0,
            "byteLength" : 4248,
            "byteOffset" : 4248
        },
        {
            "buffer" : 0,
            "byteLength" : 2832,
            "byteOffset" : 8496
        },
        {
            "buffer" : 0,
            "byteLength" : 2832,
            "byteOffset" : 11328
        },
        {
            "buffer" : 0,
            "byteLength" : 2832,
            "byteOffset" : 14160
        },
        {
            "buffer" : 0,
            "byteLength" : 1332,
            "byteOffset" : 16992
        },
        {
            "buffer" : 0,
            "byteLength" : 4,
            "byteOffset" : 18324
        },
        {
            "buffer" : 0,
            "byteLength" : 12,
            "byteOffset" : 18328
        }
    ],
    "buffers" : [
        {
            "byteLength" : 18340,
            "uri" : "data:application/octet-stream;base64,"
        }
    ]
}
