{
    "asset" : {
        "generator" : "Khronos glTF Blender I/O v1.5.17",
        "version" : "2.0"
    },
    "scene" : 0,
    "scenes" : [
        {
            "name" : "Scene",
            "nodes" : [
                0
            ]
        }
    ],
    "nodes" : [
        {
            "mesh" : 0,
            "name" : "Light.Rail.Right"
        }
    ],
    "animations" : [
        {
            "channels" : [
                {
                    "sampler" : 0,
                    "target" : {
                        "node" : 0,
                        "path" : "translation"
                    }
                }
            ],
            "name" : "Light.Rail.RightAction",
            "samplers" : [
                {
                    "input" : 5,
                    "interpolation" : "STEP",
                    "output" : 6
                }
            ]
        }
    ],
    "materials" : [
        {
            "doubleSided" : true,
            "name" : "light.",
            "pbrMetallicRoughness" : {
                "baseColorFactor" : [
                    0.00792559701949358,
                    0.00792559701949358,
                    0.00792559701949358,
                    1
                ],
                "metallicFactor" : 0.9447852969169617,
                "roughnessFactor" : 0.1748466193675995
            }
        }
    ],
    "meshes" : [
        {
            "name" : "Cube.027",
            "primitives" : [
                {
                    "attributes" : {
                        "POSITION" : 0,
                        "NORMAL" : 1,
                        "TEXCOORD_0" : 2,
                        "TEXCOORD_1" : 3
                    },
                    "indices" : 4,
                    "material" : 0
                }
            ]
        }
    ],
    "accessors" : [
        {
            "bufferView" : 0,
            "componentType" : 5126,
            "count" : 6764,
            "max" : [
                1.2067230939865112,
                0.1449299454689026,
                1.5485782623291016
            ],
            "min" : [
                -0.8682297468185425,
                -0.22390343248844147,
                -2.175116777420044
            ],
            "type" : "VEC3"
        },
        {
            "bufferView" : 1,
            "componentType" : 5126,
            "count" : 6764,
            "type" : "VEC3"
        },
        {
            "bufferView" : 2,
            "componentType" : 5126,
            "count" : 6764,
            "type" : "VEC2"
        },
        {
            "bufferView" : 3,
            "componentType" : 5126,
            "count" : 6764,
            "type" : "VEC2"
        },
        {
            "bufferView" : 4,
            "componentType" : 5123,
            "count" : 18108,
            "type" : "SCALAR"
        },
        {
            "bufferView" : 5,
            "componentType" : 5126,
            "count" : 1,
            "max" : [
                0
            ],
            "min" : [
                0
            ],
            "type" : "SCALAR"
        },
        {
            "bufferView" : 6,
            "componentType" : 5126,
            "count" : 1,
            "type" : "VEC3"
        }
    ],
    "bufferViews" : [
        {
            "buffer" : 0,
            "byteLength" : 81168,
            "byteOffset" : 0
        },
        {
            "buffer" : 0,
            "byteLength" : 81168,
            "byteOffset" : 81168
        },
        {
            "buffer" : 0,
            "byteLength" : 54112,
            "byteOffset" : 162336
        },
        {
            "buffer" : 0,
            "byteLength" : 54112,
            "byteOffset" : 216448
        },
        {
            "buffer" : 0,
            "byteLength" : 36216,
            "byteOffset" : 270560
        },
        {
            "buffer" : 0,
            "byteLength" : 4,
            "byteOffset" : 306776
        },
        {
            "buffer" : 0,
            "byteLength" : 12,
            "byteOffset" : 306780
        }
    ],
    "buffers" : [
        {
            "byteLength" : 306792,
            "uri" : "data:application/octet-stream;base64,"
        }
    ]
}
