{
    "asset" : {
        "generator" : "Khronos glTF Blender I/O v1.5.17",
        "version" : "2.0"
    },
    "scene" : 0,
    "scenes" : [
        {
            "name" : "Scene",
            "nodes" : [
                0
            ]
        }
    ],
    "nodes" : [
        {
            "mesh" : 0,
            "name" : "Light.Bulbs"
        }
    ],
    "animations" : [
        {
            "channels" : [
                {
                    "sampler" : 0,
                    "target" : {
                        "node" : 0,
                        "path" : "translation"
                    }
                }
            ],
            "name" : "Light.BulbsAction",
            "samplers" : [
                {
                    "input" : 5,
                    "interpolation" : "STEP",
                    "output" : 6
                }
            ]
        }
    ],
    "materials" : [
        {
            "doubleSided" : true,
            "emissiveFactor" : [
                0.871318519115448,
                0.8710532188415527,
                0.6571021676063538
            ],
            "name" : "Light.bulb.001",
            "pbrMetallicRoughness" : {
                "baseColorFactor" : [
                    0.800000011920929,
                    0.800000011920929,
                    0.800000011920929,
                    1
                ],
                "metallicFactor" : 0,
                "roughnessFactor" : 0.5
            }
        }
    ],
    "meshes" : [
        {
            "name" : "Cube.037",
            "primitives" : [
                {
                    "attributes" : {
                        "POSITION" : 0,
                        "NORMAL" : 1,
                        "TEXCOORD_0" : 2,
                        "TEXCOORD_1" : 3
                    },
                    "indices" : 4,
                    "material" : 0
                }
            ]
        }
    ],
    "accessors" : [
        {
            "bufferView" : 0,
            "componentType" : 5126,
            "count" : 2952,
            "max" : [
                4.052278995513916,
                0.18677259981632233,
                1.6225533485412598
            ],
            "min" : [
                -3.282151699066162,
                -0.2102488875389099,
                -2.0504345893859863
            ],
            "type" : "VEC3"
        },
        {
            "bufferView" : 1,
            "componentType" : 5126,
            "count" : 2952,
            "type" : "VEC3"
        },
        {
            "bufferView" : 2,
            "componentType" : 5126,
            "count" : 2952,
            "type" : "VEC2"
        },
        {
            "bufferView" : 3,
            "componentType" : 5126,
            "count" : 2952,
            "type" : "VEC2"
        },
        {
            "bufferView" : 4,
            "componentType" : 5123,
            "count" : 5808,
            "type" : "SCALAR"
        },
        {
            "bufferView" : 5,
            "componentType" : 5126,
            "count" : 1,
            "max" : [
                0
            ],
            "min" : [
                0
            ],
            "type" : "SCALAR"
        },
        {
            "bufferView" : 6,
            "componentType" : 5126,
            "count" : 1,
            "type" : "VEC3"
        }
    ],
    "bufferViews" : [
        {
            "buffer" : 0,
            "byteLength" : 35424,
            "byteOffset" : 0
        },
        {
            "buffer" : 0,
            "byteLength" : 35424,
            "byteOffset" : 35424
        },
        {
            "buffer" : 0,
            "byteLength" : 23616,
            "byteOffset" : 70848
        },
        {
            "buffer" : 0,
            "byteLength" : 23616,
            "byteOffset" : 94464
        },
        {
            "buffer" : 0,
            "byteLength" : 11616,
            "byteOffset" : 118080
        },
        {
            "buffer" : 0,
            "byteLength" : 4,
            "byteOffset" : 129696
        },
        {
            "buffer" : 0,
            "byteLength" : 12,
            "byteOffset" : 129700
        }
    ],
    "buffers" : [
        {
            "byteLength" : 129712,
            "uri" : "data:application/octet-stream;base64,"
        }
    ]
}
