{
    "asset" : {
        "generator" : "Khronos glTF Blender I/O v1.5.17",
        "version" : "2.0"
    },
    "scene" : 0,
    "scenes" : [
        {
            "name" : "Scene",
            "nodes" : [
                0
            ]
        }
    ],
    "nodes" : [
        {
            "mesh" : 0,
            "name" : "Light.Rail.Left"
        }
    ],
    "animations" : [
        {
            "channels" : [
                {
                    "sampler" : 0,
                    "target" : {
                        "node" : 0,
                        "path" : "translation"
                    }
                }
            ],
            "name" : "Light.Rail.LeftAction",
            "samplers" : [
                {
                    "input" : 5,
                    "interpolation" : "STEP",
                    "output" : 6
                }
            ]
        }
    ],
    "materials" : [
        {
            "doubleSided" : true,
            "name" : "light.",
            "pbrMetallicRoughness" : {
                "baseColorFactor" : [
                    0.00792559701949358,
                    0.00792559701949358,
                    0.00792559701949358,
                    1
                ],
                "metallicFactor" : 0.9447852969169617,
                "roughnessFactor" : 0.1748466193675995
            }
        }
    ],
    "meshes" : [
        {
            "name" : "Cube.038",
            "primitives" : [
                {
                    "attributes" : {
                        "POSITION" : 0,
                        "NORMAL" : 1,
                        "TEXCOORD_0" : 2,
                        "TEXCOORD_1" : 3
                    },
                    "indices" : 4,
                    "material" : 0
                }
            ]
        }
    ],
    "accessors" : [
        {
            "bufferView" : 0,
            "componentType" : 5126,
            "count" : 9009,
            "max" : [
                1.6072018146514893,
                0.14490191638469696,
                1.930637001991272
            ],
            "min" : [
                -2.7501044273376465,
                -0.2210061252117157,
                -1.8225685358047485
            ],
            "type" : "VEC3"
        },
        {
            "bufferView" : 1,
            "componentType" : 5126,
            "count" : 9009,
            "type" : "VEC3"
        },
        {
            "bufferView" : 2,
            "componentType" : 5126,
            "count" : 9009,
            "type" : "VEC2"
        },
        {
            "bufferView" : 3,
            "componentType" : 5126,
            "count" : 9009,
            "type" : "VEC2"
        },
        {
            "bufferView" : 4,
            "componentType" : 5123,
            "count" : 23880,
            "type" : "SCALAR"
        },
        {
            "bufferView" : 5,
            "componentType" : 5126,
            "count" : 1,
            "max" : [
                0
            ],
            "min" : [
                0
            ],
            "type" : "SCALAR"
        },
        {
            "bufferView" : 6,
            "componentType" : 5126,
            "count" : 1,
            "type" : "VEC3"
        }
    ],
    "bufferViews" : [
        {
            "buffer" : 0,
            "byteLength" : 108108,
            "byteOffset" : 0
        },
        {
            "buffer" : 0,
            "byteLength" : 108108,
            "byteOffset" : 108108
        },
        {
            "buffer" : 0,
            "byteLength" : 72072,
            "byteOffset" : 216216
        },
        {
            "buffer" : 0,
            "byteLength" : 72072,
            "byteOffset" : 288288
        },
        {
            "buffer" : 0,
            "byteLength" : 47760,
            "byteOffset" : 360360
        },
        {
            "buffer" : 0,
            "byteLength" : 4,
            "byteOffset" : 408120
        },
        {
            "buffer" : 0,
            "byteLength" : 12,
            "byteOffset" : 408124
        }
    ],
    "buffers" : [
        {
            "byteLength" : 408136,
            "uri" : "data:application/octet-stream;base64,"
        }
    ]
}
