{
    "asset" : {
        "generator" : "Khronos glTF Blender I/O v1.5.17",
        "version" : "2.0"
    },
    "scene" : 0,
    "scenes" : [
        {
            "name" : "Scene",
            "nodes" : [
                0
            ]
        }
    ],
    "nodes" : [
        {
            "mesh" : 0,
            "name" : "rock.001",
            "rotation" : [
                0.013034408912062645,
                0.007802129723131657,
                0.014018136076629162,
                -0.999786376953125
            ],
            "scale" : [
                1.0003960132598877,
                1.0003958940505981,
                1.0003960132598877
            ]
        }
    ],
    "animations" : [
        {
            "channels" : [
                {
                    "sampler" : 0,
                    "target" : {
                        "node" : 0,
                        "path" : "translation"
                    }
                },
                {
                    "sampler" : 1,
                    "target" : {
                        "node" : 0,
                        "path" : "rotation"
                    }
                },
                {
                    "sampler" : 2,
                    "target" : {
                        "node" : 0,
                        "path" : "scale"
                    }
                }
            ],
            "name" : "rock.008Action",
            "samplers" : [
                {
                    "input" : 5,
                    "interpolation" : "STEP",
                    "output" : 6
                },
                {
                    "input" : 5,
                    "interpolation" : "STEP",
                    "output" : 7
                },
                {
                    "input" : 5,
                    "interpolation" : "STEP",
                    "output" : 8
                }
            ]
        }
    ],
    "materials" : [
        {
            "doubleSided" : true,
            "emissiveFactor" : [
                0.01461100761001699,
                0.01461100761001699,
                0.01461100761001699
            ],
            "name" : "Rock.001",
            "pbrMetallicRoughness" : {
                "baseColorTexture" : {
                    "index" : 0
                },
                "metallicFactor" : 0,
                "roughnessFactor" : 0.6320754289627075
            }
        }
    ],
    "meshes" : [
        {
            "name" : "rock.001",
            "primitives" : [
                {
                    "attributes" : {
                        "POSITION" : 0,
                        "NORMAL" : 1,
                        "TEXCOORD_0" : 2,
                        "TEXCOORD_1" : 3
                    },
                    "indices" : 4,
                    "material" : 0
                }
            ]
        }
    ],
    "textures" : [
        {
            "sampler" : 0,
            "source" : 0
        }
    ],
    "images" : [
        {
            "bufferView" : 5,
            "mimeType" : "image/png",
            "name" : "TexturesCom_Rock_Mossy2_512_albedo2"
        }
    ],
    "accessors" : [
        {
            "bufferView" : 0,
            "componentType" : 5126,
            "count" : 1789,
            "max" : [
                1.3136677742004395,
                0.42310991883277893,
                2.2145867347717285
            ],
            "min" : [
                -2.08728289604187,
                -0.3674258589744568,
                -1.7885520458221436
            ],
            "type" : "VEC3"
        },
        {
            "bufferView" : 1,
            "componentType" : 5126,
            "count" : 1789,
            "type" : "VEC3"
        },
        {
            "bufferView" : 2,
            "componentType" : 5126,
            "count" : 1789,
            "type" : "VEC2"
        },
        {
            "bufferView" : 3,
            "componentType" : 5126,
            "count" : 1789,
            "type" : "VEC2"
        },
        {
            "bufferView" : 4,
            "componentType" : 5123,
            "count" : 7392,
            "type" : "SCALAR"
        },
        {
            "bufferView" : 6,
            "componentType" : 5126,
            "count" : 1,
            "max" : [
                0
            ],
            "min" : [
                0
            ],
            "type" : "SCALAR"
        },
        {
            "bufferView" : 7,
            "componentType" : 5126,
            "count" : 1,
            "type" : "VEC3"
        },
        {
            "bufferView" : 8,
            "componentType" : 5126,
            "count" : 1,
            "type" : "VEC4"
        },
        {
            "bufferView" : 9,
            "componentType" : 5126,
            "count" : 1,
            "type" : "VEC3"
        }
    ],
    "bufferViews" : [
        {
            "buffer" : 0,
            "byteLength" : 21468,
            "byteOffset" : 0
        },
        {
            "buffer" : 0,
            "byteLength" : 21468,
            "byteOffset" : 21468
        },
        {
            "buffer" : 0,
            "byteLength" : 14312,
            "byteOffset" : 42936
        },
        {
            "buffer" : 0,
            "byteLength" : 14312,
            "byteOffset" : 57248
        },
        {
            "buffer" : 0,
            "byteLength" : 14784,
            "byteOffset" : 71560
        },
        {
            "buffer" : 0,
            "byteLength" : 549655,
            "byteOffset" : 86344
        },
        {
            "buffer" : 0,
            "byteLength" : 4,
            "byteOffset" : 636000
        },
        {
            "buffer" : 0,
            "byteLength" : 12,
            "byteOffset" : 636004
        },
        {
            "buffer" : 0,
            "byteLength" : 16,
            "byteOffset" : 636016
        },
        {
            "buffer" : 0,
            "byteLength" : 12,
            "byteOffset" : 636032
        }
    ],
    "samplers" : [
        {
            "magFilter" : 9729,
            "minFilter" : 9987
        }
    ],
    "buffers" : [
        {
            "byteLength" : 636044,
            "uri" : "data:application/octet-stream;base64,"
        }
    ]
}
