{
    "asset" : {
        "generator" : "Khronos glTF Blender I/O v1.5.17",
        "version" : "2.0"
    },
    "scene" : 0,
    "scenes" : [
        {
            "name" : "Scene",
            "nodes" : [
                0
            ]
        }
    ],
    "nodes" : [
        {
            "mesh" : 0,
            "name" : "Screens",
            "scale" : [
                1.4521663188934326,
                1.4521663188934326,
                1
            ]
        }
    ],
    "animations" : [
        {
            "channels" : [
                {
                    "sampler" : 0,
                    "target" : {
                        "node" : 0,
                        "path" : "translation"
                    }
                },
                {
                    "sampler" : 1,
                    "target" : {
                        "node" : 0,
                        "path" : "rotation"
                    }
                },
                {
                    "sampler" : 2,
                    "target" : {
                        "node" : 0,
                        "path" : "scale"
                    }
                }
            ],
            "name" : "CubeAction",
            "samplers" : [
                {
                    "input" : 5,
                    "interpolation" : "STEP",
                    "output" : 6
                },
                {
                    "input" : 5,
                    "interpolation" : "STEP",
                    "output" : 7
                },
                {
                    "input" : 5,
                    "interpolation" : "STEP",
                    "output" : 8
                }
            ]
        }
    ],
    "materials" : [
        {
            "doubleSided" : true,
            "name" : "Window.Frames.001",
            "pbrMetallicRoughness" : {
                "baseColorFactor" : [
                    0.003607005812227726,
                    0.003607005812227726,
                    0.003607005812227726,
                    1
                ],
                "metallicFactor" : 0.9018404483795166,
                "roughnessFactor" : 0.3558282256126404
            }
        }
    ],
    "meshes" : [
        {
            "name" : "Cube.003",
            "primitives" : [
                {
                    "attributes" : {
                        "POSITION" : 0,
                        "NORMAL" : 1,
                        "TEXCOORD_0" : 2,
                        "TEXCOORD_1" : 3
                    },
                    "indices" : 4,
                    "material" : 0
                }
            ]
        }
    ],
    "accessors" : [
        {
            "bufferView" : 0,
            "componentType" : 5126,
            "count" : 20,
            "max" : [
                0.8980467319488525,
                0.641783595085144,
                0.03416132926940918
            ],
            "min" : [
                -0.8980467319488525,
                -0.641783595085144,
                -0.03416132926940918
            ],
            "type" : "VEC3"
        },
        {
            "bufferView" : 1,
            "componentType" : 5126,
            "count" : 20,
            "type" : "VEC3"
        },
        {
            "bufferView" : 2,
            "componentType" : 5126,
            "count" : 20,
            "type" : "VEC2"
        },
        {
            "bufferView" : 3,
            "componentType" : 5126,
            "count" : 20,
            "type" : "VEC2"
        },
        {
            "bufferView" : 4,
            "componentType" : 5123,
            "count" : 30,
            "type" : "SCALAR"
        },
        {
            "bufferView" : 5,
            "componentType" : 5126,
            "count" : 1,
            "max" : [
                0
            ],
            "min" : [
                0
            ],
            "type" : "SCALAR"
        },
        {
            "bufferView" : 6,
            "componentType" : 5126,
            "count" : 1,
            "type" : "VEC3"
        },
        {
            "bufferView" : 7,
            "componentType" : 5126,
            "count" : 1,
            "type" : "VEC4"
        },
        {
            "bufferView" : 8,
            "componentType" : 5126,
            "count" : 1,
            "type" : "VEC3"
        }
    ],
    "bufferViews" : [
        {
            "buffer" : 0,
            "byteLength" : 240,
            "byteOffset" : 0
        },
        {
            "buffer" : 0,
            "byteLength" : 240,
            "byteOffset" : 240
        },
        {
            "buffer" : 0,
            "byteLength" : 160,
            "byteOffset" : 480
        },
        {
            "buffer" : 0,
            "byteLength" : 160,
            "byteOffset" : 640
        },
        {
            "buffer" : 0,
            "byteLength" : 60,
            "byteOffset" : 800
        },
        {
            "buffer" : 0,
            "byteLength" : 4,
            "byteOffset" : 860
        },
        {
            "buffer" : 0,
            "byteLength" : 12,
            "byteOffset" : 864
        },
        {
            "buffer" : 0,
            "byteLength" : 16,
            "byteOffset" : 876
        },
        {
            "buffer" : 0,
            "byteLength" : 12,
            "byteOffset" : 892
        }
    ],
    "buffers" : [
        {
            "byteLength" : 904,
            "uri" : "data:application/octet-stream;base64,"
        }
    ]
}
