{
    "asset" : {
        "generator" : "Khronos glTF Blender I/O v1.5.17",
        "version" : "2.0"
    },
    "scene" : 0,
    "scenes" : [
        {
            "name" : "Scene",
            "nodes" : [
                0
            ]
        }
    ],
    "nodes" : [
        {
            "mesh" : 0,
            "name" : "Text.Creative.Space"
        }
    ],
    "animations" : [
        {
            "channels" : [
                {
                    "sampler" : 0,
                    "target" : {
                        "node" : 0,
                        "path" : "translation"
                    }
                }
            ],
            "name" : "Text.Creative.SpaceAction",
            "samplers" : [
                {
                    "input" : 5,
                    "interpolation" : "STEP",
                    "output" : 6
                }
            ]
        }
    ],
    "materials" : [
        {
            "doubleSided" : true,
            "name" : "Material.004",
            "pbrMetallicRoughness" : {
                "baseColorFactor" : [
                    0.8000000715255737,
                    0.08300658315420151,
                    0,
                    1
                ],
                "metallicFactor" : 0
            }
        }
    ],
    "meshes" : [
        {
            "name" : "Text",
            "primitives" : [
                {
                    "attributes" : {
                        "POSITION" : 0,
                        "NORMAL" : 1,
                        "TEXCOORD_0" : 2,
                        "TEXCOORD_1" : 3
                    },
                    "indices" : 4,
                    "material" : 0
                }
            ]
        }
    ],
    "accessors" : [
        {
            "bufferView" : 0,
            "componentType" : 5126,
            "count" : 4072,
            "max" : [
                0.09536898881196976,
                0.9500855803489685,
                0.030000003054738045
            ],
            "min" : [
                -0.08629696816205978,
                -0.9914031624794006,
                -0.030000003054738045
            ],
            "type" : "VEC3"
        },
        {
            "bufferView" : 1,
            "componentType" : 5126,
            "count" : 4072,
            "type" : "VEC3"
        },
        {
            "bufferView" : 2,
            "componentType" : 5126,
            "count" : 4072,
            "type" : "VEC2"
        },
        {
            "bufferView" : 3,
            "componentType" : 5126,
            "count" : 4072,
            "type" : "VEC2"
        },
        {
            "bufferView" : 4,
            "componentType" : 5123,
            "count" : 6432,
            "type" : "SCALAR"
        },
        {
            "bufferView" : 5,
            "componentType" : 5126,
            "count" : 1,
            "max" : [
                0
            ],
            "min" : [
                0
            ],
            "type" : "SCALAR"
        },
        {
            "bufferView" : 6,
            "componentType" : 5126,
            "count" : 1,
            "type" : "VEC3"
        }
    ],
    "bufferViews" : [
        {
            "buffer" : 0,
            "byteLength" : 48864,
            "byteOffset" : 0
        },
        {
            "buffer" : 0,
            "byteLength" : 48864,
            "byteOffset" : 48864
        },
        {
            "buffer" : 0,
            "byteLength" : 32576,
            "byteOffset" : 97728
        },
        {
            "buffer" : 0,
            "byteLength" : 32576,
            "byteOffset" : 130304
        },
        {
            "buffer" : 0,
            "byteLength" : 12864,
            "byteOffset" : 162880
        },
        {
            "buffer" : 0,
            "byteLength" : 4,
            "byteOffset" : 175744
        },
        {
            "buffer" : 0,
            "byteLength" : 12,
            "byteOffset" : 175748
        }
    ],
    "buffers" : [
        {
            "byteLength" : 175760,
            "uri" : "data:application/octet-stream;base64,"
        }
    ]
}
