{
    "asset" : {
        "generator" : "Khronos glTF Blender I/O v1.5.17",
        "version" : "2.0"
    },
    "scene" : 0,
    "scenes" : [
        {
            "name" : "Scene",
            "nodes" : [
                0
            ]
        }
    ],
    "nodes" : [
        {
            "mesh" : 0,
            "name" : "Wall"
        }
    ],
    "animations" : [
        {
            "channels" : [
                {
                    "sampler" : 0,
                    "target" : {
                        "node" : 0,
                        "path" : "translation"
                    }
                }
            ],
            "name" : "WallAction",
            "samplers" : [
                {
                    "input" : 6,
                    "interpolation" : "STEP",
                    "output" : 7
                }
            ]
        }
    ],
    "materials" : [
        {
            "doubleSided" : true,
            "name" : "Wall.002",
            "pbrMetallicRoughness" : {
                "metallicFactor" : 0.0995260700583458,
                "roughnessFactor" : 0.745398759841919
            }
        }
    ],
    "meshes" : [
        {
            "name" : "Cube.002",
            "primitives" : [
                {
                    "attributes" : {
                        "POSITION" : 0,
                        "NORMAL" : 1,
                        "TEXCOORD_0" : 2,
                        "TEXCOORD_1" : 3,
                        "COLOR_0" : 4
                    },
                    "indices" : 5,
                    "material" : 0
                }
            ]
        }
    ],
    "accessors" : [
        {
            "bufferView" : 0,
            "componentType" : 5126,
            "count" : 315,
            "max" : [
                3.0551443099975586,
                1.9006329774856567,
                3.6571173667907715
            ],
            "min" : [
                -6.475168228149414,
                -1.020314335823059,
                -3.893094062805176
            ],
            "type" : "VEC3"
        },
        {
            "bufferView" : 1,
            "componentType" : 5126,
            "count" : 315,
            "type" : "VEC3"
        },
        {
            "bufferView" : 2,
            "componentType" : 5126,
            "count" : 315,
            "type" : "VEC2"
        },
        {
            "bufferView" : 3,
            "componentType" : 5126,
            "count" : 315,
            "type" : "VEC2"
        },
        {
            "bufferView" : 4,
            "componentType" : 5123,
            "count" : 315,
            "normalized" : true,
            "type" : "VEC4"
        },
        {
            "bufferView" : 5,
            "componentType" : 5123,
            "count" : 699,
            "type" : "SCALAR"
        },
        {
            "bufferView" : 6,
            "componentType" : 5126,
            "count" : 1,
            "max" : [
                0
            ],
            "min" : [
                0
            ],
            "type" : "SCALAR"
        },
        {
            "bufferView" : 7,
            "componentType" : 5126,
            "count" : 1,
            "type" : "VEC3"
        }
    ],
    "bufferViews" : [
        {
            "buffer" : 0,
            "byteLength" : 3780,
            "byteOffset" : 0
        },
        {
            "buffer" : 0,
            "byteLength" : 3780,
            "byteOffset" : 3780
        },
        {
            "buffer" : 0,
            "byteLength" : 2520,
            "byteOffset" : 7560
        },
        {
            "buffer" : 0,
            "byteLength" : 2520,
            "byteOffset" : 10080
        },
        {
            "buffer" : 0,
            "byteLength" : 2520,
            "byteOffset" : 12600
        },
        {
            "buffer" : 0,
            "byteLength" : 1398,
            "byteOffset" : 15120
        },
        {
            "buffer" : 0,
            "byteLength" : 4,
            "byteOffset" : 16520
        },
        {
            "buffer" : 0,
            "byteLength" : 12,
            "byteOffset" : 16524
        }
    ],
    "buffers" : [
        {
            "byteLength" : 16536,
            "uri" : "data:application/octet-stream;base64,"
        }
    ]
}
